
<svg width="1280" height="720" viewBox="0 0 1280 720" xmlns="http://www.w3.org/2000/svg">
  <defs>
    <linearGradient id="bgGradient" x1="0%" y1="0%" x2="100%" y2="100%">
      <stop offset="0%" style="stop-color:#f8fafc;stop-opacity:1" />
      <stop offset="100%" style="stop-color:#f1f5f9;stop-opacity:1" />
    </linearGradient>
  </defs>
  
  <!-- Fondo -->
  <rect width="1280" height="720" fill="url(#bgGradient)"/>
  
  <!-- Header -->
  <rect x="0" y="0" width="1280" height="80" fill="white" stroke="#e2e8f0" stroke-width="1"/>
  <rect x="40" y="20" width="200" height="40" rx="8" fill="#0052CC"/>
  <text x="140" y="45" text-anchor="middle" fill="white" font-family="Arial, sans-serif" font-size="18" font-weight="bold">JeonseVault</text>
  
  <!-- Sidebar -->
  <rect x="0" y="80" width="240" height="640" fill="white" stroke="#e2e8f0" stroke-width="1"/>
  <rect x="20" y="120" width="200" height="40" rx="6" fill="#f1f5f9"/>
  <text x="120" y="145" text-anchor="middle" fill="#64748b" font-family="Arial, sans-serif" font-size="14">Dashboard</text>
  <rect x="20" y="170" width="200" height="40" rx="6" fill="#0052CC"/>
  <text x="120" y="195" text-anchor="middle" fill="white" font-family="Arial, sans-serif" font-size="14">Depósitos</text>
  <rect x="20" y="220" width="200" height="40" rx="6" fill="#f1f5f9"/>
  <text x="120" y="245" text-anchor="middle" fill="#64748b" font-family="Arial, sans-serif" font-size="14">Inversiones</text>
  <rect x="20" y="270" width="200" height="40" rx="6" fill="#f1f5f9"/>
  <text x="120" y="295" text-anchor="middle" fill="#64748b" font-family="Arial, sans-serif" font-size="14">Compliance</text>
  
  <!-- Contenido principal -->
  <rect x="260" y="100" width="1000" height="600" rx="12" fill="white" stroke="#e2e8f0" stroke-width="1"/>
  
  <!-- Cards de estadísticas -->
  <rect x="280" y="120" width="220" height="120" rx="8" fill="#f8fafc" stroke="#e2e8f0" stroke-width="1"/>
  <text x="390" y="140" text-anchor="middle" fill="#1e293b" font-family="Arial, sans-serif" font-size="12" font-weight="bold">Total Depósitos</text>
  <text x="390" y="180" text-anchor="middle" fill="#0052CC" font-family="Arial, sans-serif" font-size="24" font-weight="bold">₩2.5B</text>
  <text x="390" y="200" text-anchor="middle" fill="#10b981" font-family="Arial, sans-serif" font-size="12">+12.5%</text>
  
  <rect x="520" y="120" width="220" height="120" rx="8" fill="#f8fafc" stroke="#e2e8f0" stroke-width="1"/>
  <text x="630" y="140" text-anchor="middle" fill="#1e293b" font-family="Arial, sans-serif" font-size="12" font-weight="bold">Inversores Activos</text>
  <text x="630" y="180" text-anchor="middle" fill="#0052CC" font-family="Arial, sans-serif" font-size="24" font-weight="bold">1,247</text>
  <text x="630" y="200" text-anchor="middle" fill="#10b981" font-family="Arial, sans-serif" font-size="12">+8.3%</text>
  
  <rect x="760" y="120" width="220" height="120" rx="8" fill="#f8fafc" stroke="#e2e8f0" stroke-width="1"/>
  <text x="870" y="140" text-anchor="middle" fill="#1e293b" font-family="Arial, sans-serif" font-size="12" font-weight="bold">Rendimiento Promedio</text>
  <text x="870" y="180" text-anchor="middle" fill="#0052CC" font-family="Arial, sans-serif" font-size="24" font-weight="bold">6.8%</text>
  <text x="870" y="200" text-anchor="middle" fill="#10b981" font-family="Arial, sans-serif" font-size="12">+0.5%</text>
  
  <rect x="1000" y="120" width="220" height="120" rx="8" fill="#f8fafc" stroke="#e2e8f0" stroke-width="1"/>
  <text x="1110" y="140" text-anchor="middle" fill="#1e293b" font-family="Arial, sans-serif" font-size="12" font-weight="bold">Propiedades Verificadas</text>
  <text x="1110" y="180" text-anchor="middle" fill="#0052CC" font-family="Arial, sans-serif" font-size="24" font-weight="bold">892</text>
  <text x="1110" y="200" text-anchor="middle" fill="#10b981" font-family="Arial, sans-serif" font-size="12">+15.2%</text>
  
  <!-- Tabla de depósitos recientes -->
  <rect x="280" y="260" width="940" height="300" rx="8" fill="white" stroke="#e2e8f0" stroke-width="1"/>
  <text x="300" y="285" fill="#1e293b" font-family="Arial, sans-serif" font-size="14" font-weight="bold">Depósitos Recientes</text>
  
  <!-- Filas de la tabla -->
  <rect x="300" y="300" width="900" height="40" fill="#f8fafc"/>
  <text x="320" y="320" fill="#64748b" font-family="Arial, sans-serif" font-size="12">Gangnam-gu, Seoul</text>
  <text x="500" y="320" fill="#64748b" font-family="Arial, sans-serif" font-size="12">₩500M</text>
  <text x="650" y="320" fill="#64748b" font-family="Arial, sans-serif" font-size="12">85%</text>
  <text x="750" y="320" fill="#10b981" font-family="Arial, sans-serif" font-size="12">Activo</text>
  <text x="900" y="320" fill="#64748b" font-family="Arial, sans-serif" font-size="12">15 días</text>
  
  <rect x="300" y="340" width="900" height="40" fill="white"/>
  <text x="320" y="360" fill="#64748b" font-family="Arial, sans-serif" font-size="12">Mapo-gu, Seoul</text>
  <text x="500" y="360" fill="#64748b" font-family="Arial, sans-serif" font-size="12">₩300M</text>
  <text x="650" y="360" fill="#64748b" font-family="Arial, sans-serif" font-size="12">100%</text>
  <text x="750" y="360" fill="#0052CC" font-family="Arial, sans-serif" font-size="12">Completado</text>
  <text x="900" y="360" fill="#64748b" font-family="Arial, sans-serif" font-size="12">Completado</text>
  
  <rect x="300" y="380" width="900" height="40" fill="#f8fafc"/>
  <text x="320" y="400" fill="#64748b" font-family="Arial, sans-serif" font-size="12">Yongsan-gu, Seoul</text>
  <text x="500" y="400" fill="#64748b" font-family="Arial, sans-serif" font-size="12">₩750M</text>
  <text x="650" y="400" fill="#64748b" font-family="Arial, sans-serif" font-size="12">45%</text>
  <text x="750" y="400" fill="#f59e0b" font-family="Arial, sans-serif" font-size="12">Pendiente</text>
  <text x="900" y="400" fill="#64748b" font-family="Arial, sans-serif" font-size="12">45 días</text>
  
  <!-- Footer -->
  <rect x="280" y="580" width="940" height="40" rx="8" fill="#f8fafc" stroke="#e2e8f0" stroke-width="1"/>
  <text x="300" y="600" fill="#64748b" font-family="Arial, sans-serif" font-size="12">Mostrando 1-3 de 47 depósitos</text>
</svg>