
<svg width="512" height="512" viewBox="0 0 512 512" xmlns="http://www.w3.org/2000/svg">
  <defs>
    <linearGradient id="primaryGradient" x1="0%" y1="0%" x2="100%" y2="100%">
      <stop offset="0%" style="stop-color:#0052CC;stop-opacity:1" />
      <stop offset="50%" style="stop-color:#1e40af;stop-opacity:1" />
      <stop offset="100%" style="stop-color:#3b82f6;stop-opacity:1" />
    </linearGradient>
    <linearGradient id="secondaryGradient" x1="0%" y1="0%" x2="100%" y2="0%">
      <stop offset="0%" style="stop-color:#ffffff;stop-opacity:0.9" />
      <stop offset="100%" style="stop-color:#f1f5f9;stop-opacity:0.8" />
    </linearGradient>
    <filter id="shadow" x="-20%" y="-20%" width="140%" height="140%">
      <feDropShadow dx="0" dy="4" stdDeviation="8" flood-color="#000000" flood-opacity="0.15"/>
    </filter>
  </defs>
  
  <!-- Fondo con gradiente -->
  <rect width="512" height="512" rx="96" fill="url(#primaryGradient)"/>
  
  <!-- Elemento principal - Casa/Edificio estilizado -->
  <g filter="url(#shadow)">
    <!-- Base del edificio -->
    <rect x="128" y="320" width="256" height="128" rx="16" fill="url(#secondaryGradient)"/>
    
    <!-- Techo -->
    <path d="M128 320 L256 200 L384 320 Z" fill="url(#secondaryGradient)"/>
    
    <!-- Ventanas -->
    <rect x="160" y="240" width="48" height="48" rx="8" fill="#0052CC" opacity="0.8"/>
    <rect x="224" y="240" width="48" height="48" rx="8" fill="#0052CC" opacity="0.8"/>
    <rect x="288" y="240" width="48" height="48" rx="8" fill="#0052CC" opacity="0.8"/>
    
    <!-- Puerta -->
    <rect x="224" y="320" width="64" height="80" rx="8" fill="#0052CC"/>
    
    <!-- Elemento de seguridad/escrow -->
    <circle cx="256" cy="160" r="32" fill="#ffffff" opacity="0.95"/>
    <path d="M240 160 L256 144 L272 160 L256 176 Z" fill="#0052CC"/>
    
    <!-- Símbolo de blockchain -->
    <g transform="translate(400, 112)">
      <circle cx="0" cy="0" r="16" fill="#ffffff" opacity="0.9"/>
      <path d="M-8 0 L0 -8 L8 0 L0 8 Z" fill="#0052CC"/>
    </g>
  </g>
  
  <!-- Texto de marca -->
  <text x="256" y="480" text-anchor="middle" fill="white" font-family="Arial, sans-serif" font-size="32" font-weight="bold" opacity="0.9">JV</text>
</svg>